Coordinates
version=1
nRows=17
nColumns=34
inDegrees=yes

Units are S.I. units (second, meters, Newtons, ...)
If the header above contains a line with 'inDegrees', this indicates whether rotational values are in degrees (yes) or radians (no).

endheader
time	pelvis_tilt	pelvis_list	pelvis_rotation	pelvis_tx	pelvis_ty	pelvis_tz	hip_flexion_r	hip_adduction_r	hip_rotation_r	knee_angle_r	ankle_angle_r	subtalar_angle_r	mtp_angle_r	hip_flexion_l	hip_adduction_l	hip_rotation_l	knee_angle_l	ankle_angle_l	subtalar_angle_l	mtp_angle_l	lumbar_extension	lumbar_bending	lumbar_rotation	arm_flex_r	arm_add_r	arm_rot_r	elbow_flex_r	pro_sup_r	arm_flex_l	arm_add_l	arm_rot_l	elbow_flex_l	pro_sup_l
      3.51666670	    -21.64774692	      6.35678814	      0.19334660	      2.77407989	      0.84922332	     -0.11003265	     -2.23156298	     -9.33733476	    -16.68482633	     12.58941366	      1.33209787	     -9.11219281	      0.00000000	     11.06273829	      5.54489000	    -14.48229840	      1.10533722	     19.44163220	     14.51257694	      0.00000000	     17.87732634	    -10.22820797	    -18.88072757	      2.19625766	    -10.72100432	     34.62420111	     33.78609882	     82.98905932	    -37.86949605	      2.24793374	    -27.53403538	     57.33203376	     99.50799087
      3.53333330	    -21.15180689	      5.12907903	      0.60600682	      2.78849584	      0.85150286	     -0.11298004	     -2.58683230	     -8.34556006	    -15.65125519	     13.20725879	     -0.42111925	    -11.30678601	      0.00000000	      9.69263539	      4.51999232	    -13.66271347	      1.15085382	     20.94281283	     15.11434607	      0.00000000	     16.33895681	     -1.91848991	     21.80851715	    -32.44883351	      5.82628139	    -35.53831817	     65.83222748	    108.87968267	     -1.51446423	    -14.59302255	     36.05968066	     28.31447183	    101.44079641
      3.55000000	    -21.15339131	      3.99746260	      1.03525945	      2.80450756	      0.85614679	     -0.11476104	     -2.37357759	     -7.37709183	    -15.01432621	     14.05646330	      0.67699431	    -11.53116276	      0.00000000	      8.61674862	      3.51363559	    -12.76991818	      1.08324677	     21.61590192	     15.12775062	      0.00000000	     16.51497048	     -0.88619865	     19.37712073	    -33.43450742	      5.31851112	    -33.55622454	     66.29322206	    107.98238460	     -3.40555132	    -17.36101507	     40.29891362	     36.48974657	     93.59239844
      3.56666670	    -21.20606996	      2.98106826	      1.74646950	      2.82300984	      0.86106695	     -0.11728770	     -2.54927874	     -6.34436249	    -14.11062225	     14.46090520	      1.85325531	    -12.12106515	      0.00000000	      7.78879034	      2.55176131	    -12.04576746	      1.36402932	     21.73317121	     15.42411044	      0.00000000	     16.92063177	      0.11830584	     18.53863633	    -34.77869614	      5.99320806	    -33.67568995	     65.79845377	    107.94749635	     -3.34356051	    -17.26519412	     40.26307599	     36.73695122	     93.32753716
      3.58333330	    -22.16254316	      2.50217220	      2.13113927	      2.83916630	      0.86503241	     -0.11854240	     -2.04941631	     -5.79523312	    -11.94438645	     14.86059211	      3.13755892	    -13.62758214	      0.00000000	      7.97276980	      2.03147441	    -11.46927317	      1.75665795	     21.37109219	     14.83746354	      0.00000000	     18.35434529	      0.72166634	     18.39182236	    -36.57101322	      7.85757146	    -35.62635520	     66.49674763	    107.56986008	     -4.11706671	    -18.52545810	     40.36123974	     40.29697236	     91.45653303
      3.60000000	    -22.92394505	      2.11540919	      2.36572197	      2.85147188	      0.86639851	     -0.11996871	     -1.82316757	     -5.26684550	    -10.02684986	     14.97212995	      4.60992927	    -14.96966974	      0.00000000	      7.88294981	      1.62242482	    -11.37537040	      1.77230751	     20.89283269	     14.58046186	      0.00000000	     19.61959380	      1.04688261	     18.14888847	    -37.91242177	      9.16804139	    -36.52258943	     65.96042258	    107.48564228	     -4.80932749	    -19.71884570	     40.89343375	     43.16316739	     89.95560652
      3.61666670	    -23.07938798	      1.28722814	      2.78949369	      2.85523514	      0.86515446	     -0.12311049	     -1.48176843	     -4.32969593	     -9.11263902	     15.17139501	      6.33104538	    -16.28552053	      0.00000000	      7.27451645	      0.86015677	    -10.90181988	      1.75645340	     20.76732382	     14.62541239	      0.00000000	     20.05510404	      1.82949089	     17.20309985	    -38.90960862	      9.72810076	    -36.71558314	     65.23776713	    107.47326818	     -4.70913803	    -19.84979678	     40.99835653	     43.76836427	     89.62060383
      3.63333330	    -22.83222709	      0.26868570	      3.04962305	      2.85363945	      0.86646070	     -0.12478664	     -0.77563354	     -3.08845407	     -7.75294680	     15.53063863	      8.62212397	    -17.96617838	      0.00000000	      6.83821885	     -0.16076189	    -10.30205627	      2.03519497	     20.69430068	     13.98224061	      0.00000000	     20.06426549	      2.82768245	     15.94203655	    -39.00837499	      9.91145876	    -37.05938648	     63.62364021	    107.44211180	     -4.52341621	    -19.92151962	     41.19369060	     44.33219252	     89.14792722
      3.65000000	    -22.04930413	     -0.97619452	      3.59446809	      2.85401295	      0.86253171	     -0.13028653	     -0.19263110	     -1.77712270	     -7.07476357	     16.03131121	     10.19497110	    -19.77612129	      0.00000000	      6.33678342	     -1.29158823	     -9.21118282	      2.45674813	     20.53639703	     12.95801394	      0.00000000	     19.30252570	      3.86901610	     13.98743247	    -38.01096687	      9.13390014	    -37.17525446	     60.43404533	    107.43252632	     -3.89225793	    -19.42449524	     41.24894723	     44.46264560	     88.18298825
      3.66666670	    -21.01304693	     -2.28682833	      4.05318205	      2.85781205	      0.86850703	     -0.13297017	      0.76303239	     -0.41002506	     -6.75830575	     16.74445549	     11.29431097	    -21.70328472	      0.00000000	      5.73858482	     -2.50289415	     -8.28866226	      2.87196686	     20.71880996	     12.35868012	      0.00000000	     18.17296545	      4.94628383	     11.83311454	    -36.55133703	      7.69918718	    -35.69018180	     57.24111393	    107.48990888	     -3.40971373	    -18.22800232	     39.43872167	     43.32623748	     86.05639680
      3.68333330	    -19.71654711	     -3.44824670	      4.71937169	      2.87214462	      0.86951125	     -0.13794414	      1.22977248	      0.68351885	     -7.20577054	     17.30804929	     11.91575409	    -22.72908271	      0.00000000	      4.64444852	     -3.54412677	     -7.85455308	      3.16336985	     20.87255016	     12.67007340	      0.00000000	     16.86726053	      6.09898316	      9.60930809	    -35.37153444	      6.87807790	    -35.72300226	     55.46698942	    107.41889935	     -2.97037326	    -17.56763898	     39.13934656	     43.08210375	     85.73883842
      3.70000000	    -19.05949381	     -4.44605439	      5.45855609	      2.89636920	      0.87151204	     -0.14158602	      1.55601222	      1.58813871	     -8.19601341	     17.15429744	     11.57041665	    -23.52394234	      0.00000000	      3.42294417	     -4.46679634	     -8.01078163	      3.31392354	     20.78076867	     13.32124392	      0.00000000	     16.71481118	      7.04515383	      7.73429225	    -34.72982038	      6.38952217	    -35.73361276	     53.48012707	    107.38920397	     -3.17973614	    -17.15626199	     38.37945132	     43.19575083	     85.36723582
      3.71666670	    -18.99126819	     -5.57481648	      6.20144860	      2.91973153	      0.87460278	     -0.14356224	      1.99103569	      2.73798583	     -8.90539700	     16.26576398	     11.38154022	    -23.68879333	      0.00000000	      2.24567729	     -5.59680374	     -8.12881911	      3.08046515	     20.44502634	     13.98061557	      0.00000000	     17.60281301	      8.08269984	      6.38133079	    -34.91020468	      6.41109211	    -35.86261187	     52.86827172	    107.37194769	     -3.75377505	    -17.08187968	     37.77436335	     43.79925864	     85.15307242
      3.73333330	    -20.22029337	     -6.47798228	      6.37677287	      2.92597431	      0.87618332	     -0.14330778	      3.76567540	      3.44457362	     -9.87471030	     15.34363837	     10.85566700	    -23.76925416	      0.00000000	      2.43444777	     -6.49796173	     -8.65381842	      2.79855561	     19.74682073	     14.86334729	      0.00000000	     18.32011076	      2.15796557	    -26.52303095	     -9.91393368	     -9.19401437	      8.38022063	     23.18264661	    112.34410765	    -35.21307599	     -0.58361311	    -23.48946378	     69.20127051	    119.74817918
      3.75000000	    -19.22011844	     -7.80401533	      7.49418109	      2.93550761	      0.87835905	     -0.14491559	      2.90727821	      5.07862181	    -11.01060880	     12.79818629	      8.78572460	    -24.98846810	      0.00000000	      0.23921112	     -8.11140927	     -8.02177482	      2.16350097	     19.23915419	     14.95398946	      0.00000000	     18.20685096	      1.80600874	    -40.85335993	      4.31767493	     -5.56596768	     14.17403670	      0.00000000	    104.82724637	    -40.18793391	      8.33799401	    -35.47195477	     70.03703032	    111.44503547
      3.76666670	    -19.31741347	     -9.25602264	      8.09506351	      2.93860494	      0.87085326	     -0.14819005	      3.82628785	      6.50916799	    -12.69347285	     10.62255063	     10.79437474	    -22.49487040	      0.00000000	     -0.29497897	     -9.70345208	     -6.99704402	      1.80128891	     19.55017765	     14.40735745	      0.00000000	     18.69133246	      2.97877173	    -43.70650492	      5.43659946	     -5.62675378	     15.39738426	      0.00000000	    106.62910066	    -41.26913298	      9.50054129	    -35.87321262	     71.64586286	    111.14793863
      3.78333330	    -18.90287345	    -10.59717246	      8.80662851	      2.93898334	      0.86657679	     -0.15116506	      4.36650822	      7.83455996	    -15.02243492	      8.30887105	     12.50404969	    -20.02152625	      0.00000000	     -1.04358473	    -11.23251341	     -6.19988580	      1.30046691	     20.19068549	     15.03848581	      0.00000000	     18.59126064	      4.24458548	    -45.60409272	      6.12659066	     -5.63916977	     16.00423987	      0.00000000	    107.83976936	    -41.15666908	     10.03149471	    -36.28367994	     72.71577043	    111.02343756
